<svg width="56" height="56" viewBox="0 0 56 56" fill="none" xmlns="http://www.w3.org/2000/svg">
<g clip-path="url(#clip0_2203_2)">
<path fill-rule="evenodd" clip-rule="evenodd" d="M42.7281 11.4146L37.9641 10.709C37.8231 10.6808 37.6821 10.7373 37.6257 10.7937L35.5961 13.4464C35.4552 13.6158 35.427 13.8415 35.4833 14.0391C35.5397 14.2366 35.3706 14.406 35.1733 14.3777L33.5101 14.0109C33.2564 13.9544 32.9745 14.0391 32.8053 14.2648L26.209 22.7311C26.0962 22.9003 25.8708 22.9568 25.6734 22.8722L23.1645 21.7433C22.939 21.6304 22.6853 21.6586 22.488 21.7997L21.2195 22.6746C21.0221 22.8157 20.7403 22.8439 20.5147 22.7311L19.8946 22.4206C19.4999 22.2231 19.0207 22.4489 18.908 22.8722L18.4569 24.8758C18.3441 25.3556 18.5415 25.8353 18.9643 26.0893L19.9227 26.6819L22.9954 28.5727L24.4894 29.504C24.9123 29.758 25.4479 29.7016 25.8144 29.3911L28.3232 27.1899C28.5205 27.0206 28.8306 26.9641 29.0562 27.1052L29.8173 27.5004C30.071 27.6415 30.3811 27.585 30.5784 27.3874L31.8469 26.2022C32.0443 26.0046 32.3543 25.9764 32.5799 26.0893L34.4685 26.9641C34.7504 27.1052 35.0887 27.0206 35.286 26.7666L36.1599 25.6378L42.7845 17.1433C43.0945 16.7482 42.8972 16.1557 42.3898 16.0427L40.9239 15.7041C40.6138 15.6477 40.4729 15.2526 40.6984 15.0268L42.9818 12.1765C43.2073 11.8379 43.0663 11.471 42.7281 11.4146ZM20.881 28.5163C20.74 28.4316 20.5991 28.5727 20.6555 28.7138L21.3602 30.5764C21.4166 30.7175 21.4166 30.8586 21.3884 30.9997L20.7683 33.4267C20.74 33.596 20.7964 33.7653 20.9092 33.85L22.6851 35.2328C22.8543 35.3457 23.0798 35.3457 23.2207 35.2046L25.0812 33.5678C25.194 33.4831 25.3349 33.4267 25.4477 33.3985L27.5619 33.1727C27.7028 33.1445 27.7592 32.9469 27.6183 32.8622L20.881 28.5163ZM19.8381 34.7248C19.9791 34.6684 20.1482 34.6966 20.261 34.7813L22.1779 36.2487C22.2625 36.3334 22.3189 36.4463 22.3189 36.5874L22.1497 38.7322C22.1215 38.8451 22.0933 38.9297 22.0088 39.0144L13.7492 47.3112C13.6928 47.3959 13.5801 47.3112 13.6365 47.2266L15.9198 43.4733C15.948 43.445 15.9198 43.3886 15.8916 43.3603H15.8071L15.0741 43.6425C15.0177 43.6425 14.9896 43.6144 14.9614 43.5861V43.5297L18.1468 35.6561C18.2032 35.5714 18.2595 35.4868 18.3441 35.4586L19.8381 34.7248Z" fill="#8257E6"/>
</g>
<defs>
<clipPath id="clip0_2203_2">
<rect width="30.1385" height="36.9439" fill="white" transform="translate(13.2212 10.4992)"/>
</clipPath>
</defs>
</svg>
